<?xml version="1.0" standalone="no"?>
<!DOCTYPE svg PUBLIC "-//W3C//DTD SVG 20010904//EN"
 "http://www.w3.org/TR/2001/REC-SVG-20010904/DTD/svg10.dtd">
<svg version="1.0" xmlns="http://www.w3.org/2000/svg"
 width="360.000000pt" height="360.000000pt" viewBox="0 0 360.000000 360.000000"
 preserveAspectRatio="xMidYMid meet">
<metadata>
Created by potrace 1.14, written by Peter Selinger 2001-2017
</metadata>
<g transform="translate(0.000000,360.000000) scale(0.100000,-0.100000)"
fill="#000000" stroke="none">
<path d="M1560 3115 l-285 -52 -296 -182 -295 -182 -175 -257 -175 -257 -57
-245 -57 -246 0 -284 0 -285 72 -78 73 -78 250 -80 c268 -86 246 -82 847 -169
l216 -31 429 41 c416 40 437 43 738 107 l310 66 148 74 c81 40 150 79 152 86
2 6 11 161 20 342 l17 330 -81 228 -81 228 -173 247 -173 247 -280 182 c-153
100 -290 187 -304 192 -19 8 -312 66 -535 106 -11 2 -148 -20 -305 -50z m440
-15 l95 -19 -125 6 c-69 3 -127 7 -129 9 -11 10 24 33 43 29 11 -3 64 -14 116
-25z m-200 6 c-13 -12 -178 -31 -167 -19 5 4 135 30 162 32 17 1 17 -1 5 -13z
m-375 -154 c-137 -54 -251 -97 -253 -96 -2 1 25 41 59 88 63 85 63 86 109 87
25 1 92 5 150 9 201 13 204 17 -65 -88z m670 -17 c143 -59 263 -110 268 -114
4 -4 -128 -33 -294 -65 -166 -31 -303 -56 -304 -54 -2 2 8 81 23 176 16 110
29 171 36 168 6 -2 128 -53 271 -111z m152 99 l132 -7 16 -71 c8 -39 18 -81
21 -93 6 -21 -12 -15 -192 59 -110 44 -224 92 -254 105 l-55 24 100 -5 c55 -3
159 -8 232 -12z m-477 -6 c0 -33 -44 -314 -51 -322 -6 -7 -214 35 -489 97
l-54 12 284 112 c157 61 291 111 298 112 6 1 12 -5 12 -11z m858 -155 c108
-69 203 -132 210 -138 9 -9 -358 79 -375 89 -4 3 -39 176 -36 176 3 0 93 -57
201 -127z m-1435 84 c-4 -8 -28 -40 -52 -73 l-44 -59 -111 -34 c-61 -18 -120
-36 -131 -38 -11 -3 61 45 160 106 99 60 181 110 183 111 2 0 -1 -6 -5 -13z
m486 -293 c2 -2 2 -5 0 -7 -17 -12 -599 -387 -602 -387 -2 0 49 514 52 516 3
2 547 -118 550 -122z m721 -143 c-12 -124 -25 -234 -28 -244 -6 -15 -49 11
-282 173 -151 106 -281 197 -287 204 -10 9 31 20 190 50 111 20 252 48 312 60
108 22 110 22 113 3 2 -11 -6 -121 -18 -246z m-1502 113 c-219 -214 -298 -288
-298 -278 0 11 108 305 115 312 5 5 309 99 313 97 1 -1 -58 -60 -130 -131z
m2061 -361 c-29 -5 -543 -33 -546 -29 -2 2 8 117 22 257 14 140 25 258 25 263
0 4 115 -104 256 -240 141 -137 250 -250 243 -251z m-226 443 c115 -30 211
-57 215 -60 7 -7 44 -306 40 -325 -2 -9 -96 75 -236 209 -127 123 -232 225
-232 227 0 4 -13 8 213 -51z m-1674 -221 l-23 -246 -95 7 c-53 4 -154 12 -224
18 l-128 11 242 232 c134 128 245 231 247 228 2 -2 -6 -115 -19 -250z m654 83
c-2 -29 -10 -149 -17 -266 -8 -118 -16 -216 -19 -218 -3 -3 -134 28 -292 69
l-288 73 304 197 c167 108 307 197 310 197 3 0 4 -24 2 -52z m342 -148 c158
-110 281 -202 274 -204 -43 -14 -601 -137 -605 -133 -7 7 29 537 36 537 4 0
137 -90 295 -200z m1084 -30 c71 -102 128 -186 127 -187 -5 -5 -221 58 -226
67 -4 6 -12 61 -19 123 -6 62 -15 130 -18 152 -3 22 -3 38 0 35 4 -4 65 -89
136 -190z m-2563 5 l-44 -120 -53 -27 c-30 -15 -58 -27 -62 -27 -5 -1 38 67
94 149 56 83 104 149 105 147 2 -1 -17 -56 -40 -122z m229 -176 c99 -6 185
-14 192 -18 7 -4 -59 -100 -184 -266 -107 -143 -201 -269 -209 -279 -7 -11
-15 -18 -18 -15 -2 2 -7 138 -11 303 l-8 298 29 -5 c16 -3 110 -11 209 -18z
m2189 -16 c-2 -16 -27 -158 -54 -317 -27 -158 -51 -290 -53 -293 -3 -2 -106
130 -230 294 -124 164 -223 300 -221 303 3 2 125 12 272 21 147 9 273 17 279
18 8 1 11 -8 7 -26z m-2595 -185 c-56 -106 -104 -195 -107 -198 -3 -3 -1 9 3
25 4 17 22 92 40 168 17 75 34 139 36 141 10 9 124 64 127 61 2 -2 -42 -90
-99 -197z m2901 117 c0 -11 9 -107 20 -214 11 -107 20 -199 20 -205 0 -6 -63
104 -140 244 -77 140 -140 254 -140 255 0 1 54 -13 120 -29 103 -27 120 -34
120 -51z m-1933 -16 c153 -39 281 -74 286 -78 4 -4 -81 -126 -190 -270 -160
-214 -199 -260 -205 -245 -7 17 -178 651 -178 660 0 6 -1 7 287 -67z m-828
-234 c5 -154 9 -280 8 -281 -6 -6 -277 73 -277 80 0 13 255 496 257 488 1 -4
7 -133 12 -287z m1810 268 c-29 -74 -222 -621 -226 -640 -3 -13 -8 -23 -12
-23 -8 1 -379 544 -375 549 5 6 582 139 606 140 15 1 16 -3 7 -26z m847 -263
c78 -140 141 -256 139 -258 -2 -2 -397 -72 -408 -72 -4 0 86 547 99 600 5 24
6 24 17 5 6 -11 75 -135 153 -275z m-2059 -62 c50 -189 90 -344 90 -344 -2 -1
-247 41 -534 92 l-92 16 217 289 c119 158 219 288 222 288 3 1 46 -153 97
-341z m1498 27 l227 -300 -34 -7 c-57 -13 -669 -80 -675 -75 -3 3 50 161 118
352 67 190 126 342 130 338 4 -5 109 -143 234 -308z m-741 -120 c102 -148 184
-270 183 -270 -8 -4 -769 13 -773 18 -8 8 390 536 398 529 4 -4 90 -128 192
-277z m1525 -43 c-19 -17 -35 -30 -35 -29 -1 1 -7 56 -13 122 -6 66 -14 143
-16 170 -5 42 3 27 46 -92 l51 -141 -33 -30z m25 -189 c-3 -93 -10 -174 -13
-181 -4 -7 -15 55 -25 139 l-17 152 28 27 c15 16 29 28 31 29 2 1 0 -74 -4
-166z m-3032 96 c68 -17 125 -33 127 -35 2 -2 -32 -116 -75 -253 -44 -138 -82
-247 -85 -243 -3 4 -29 124 -58 267 -29 143 -55 271 -58 284 -5 19 -3 23 10
18 8 -3 71 -20 139 -38z m2925 -21 c-2 -7 -44 -141 -92 -298 -48 -157 -90
-288 -94 -293 -4 -4 -56 112 -115 259 -59 146 -105 268 -102 271 6 6 348 70
385 72 15 1 21 -4 18 -11z m-2515 -63 c112 -19 246 -42 298 -51 52 -9 97 -18
99 -20 2 -1 -70 -133 -160 -293 -90 -159 -167 -287 -171 -283 -5 6 -248 579
-279 660 -5 13 -5 22 1 22 5 0 101 -16 212 -35z m-109 -332 c75 -181 137 -331
137 -335 0 -4 -10 -3 -22 2 -13 5 -111 37 -218 71 -107 33 -198 64 -202 67 -3
4 25 104 63 222 38 118 74 234 80 258 6 23 14 42 18 42 4 0 68 -147 144 -327z
m2070 155 c-47 -95 -123 -251 -169 -347 l-84 -175 -190 305 c-110 176 -185
306 -178 308 15 5 634 78 675 80 l31 1 -85 -172z m606 -38 c12 -107 25 -203
27 -212 4 -13 -22 -30 -113 -77 -64 -33 -118 -59 -119 -58 -5 7 172 555 177
549 3 -4 16 -95 28 -202z m-373 -102 c59 -148 106 -269 103 -271 -8 -7 -541
-118 -545 -114 -2 2 69 153 158 336 89 182 165 328 169 324 4 -5 56 -128 115
-275z m-2716 61 c22 -107 40 -199 40 -206 0 -7 -20 10 -45 36 l-45 48 0 163
c0 90 2 161 5 159 2 -3 23 -93 45 -200z m1778 165 c5 -3 -391 -683 -398 -683
-4 0 -377 664 -389 692 -3 8 778 -1 787 -9z m-628 -352 c105 -189 190 -345
188 -347 -3 -2 -709 97 -716 101 -2 1 72 135 164 298 92 163 168 295 170 294
1 -2 88 -157 194 -346z m855 36 c99 -159 181 -296 183 -302 2 -9 -63 -19 -235
-35 -131 -12 -303 -29 -382 -37 -79 -8 -145 -13 -148 -11 -5 6 387 677 395
676 4 0 88 -131 187 -291z"/>
</g>
</svg>
