<?xml version="1.0" standalone="no"?>
<!DOCTYPE svg PUBLIC "-//W3C//DTD SVG 20010904//EN"
 "http://www.w3.org/TR/2001/REC-SVG-20010904/DTD/svg10.dtd">
<svg version="1.0" xmlns="http://www.w3.org/2000/svg"
 width="1128.000000pt" height="1128.000000pt" viewBox="0 0 1128.000000 1128.000000"
 preserveAspectRatio="xMidYMid meet">
<metadata>
Created by potrace 1.14, written by Peter Selinger 2001-2017
</metadata>
<g transform="translate(0.000000,1128.000000) scale(0.100000,-0.100000)"
fill="#000000" stroke="none">
<path d="M2877 9116 c-112 -41 -169 -147 -168 -316 1 -94 9 -138 37 -197 39
-82 102 -120 199 -121 164 -1 258 131 250 348 -7 194 -83 293 -230 298 -27 1
-67 -4 -88 -12z m156 -92 c52 -37 76 -118 72 -236 -3 -102 -32 -171 -85 -206
-29 -20 -43 -23 -85 -18 -67 7 -107 51 -125 135 -29 136 4 286 73 331 39 25
111 23 150 -6z"/>
<path d="M5047 9116 c-110 -40 -168 -150 -168 -318 -1 -200 76 -309 223 -317
108 -6 204 61 243 169 19 56 27 206 13 276 -17 87 -71 160 -138 187 -47 19
-126 20 -173 3z m137 -81 c35 -17 74 -76 84 -128 3 -18 6 -71 6 -118 -1 -71
-5 -95 -25 -135 -42 -86 -125 -118 -196 -74 -60 36 -82 100 -80 234 2 87 6
109 27 150 40 77 112 105 184 71z"/>
<path d="M8345 9117 c-126 -42 -196 -172 -189 -348 5 -117 47 -205 118 -249
48 -29 78 -35 171 -34 108 1 145 19 145 73 l0 38 -52 -19 c-65 -22 -141 -21
-190 3 -69 35 -101 109 -101 230 1 188 121 279 291 220 l52 -18 0 41 c0 40 -2
42 -43 58 -48 17 -157 21 -202 5z"/>
<path d="M9384 9114 c-81 -29 -133 -108 -119 -182 13 -72 63 -114 193 -163 88
-33 132 -71 132 -114 0 -36 -22 -66 -61 -82 -36 -15 -160 -13 -222 3 -29 8
-52 14 -52 14 0 0 -1 -18 -1 -40 -1 -37 1 -41 35 -51 60 -18 210 -19 263 -2
86 29 128 83 128 166 0 81 -47 126 -196 188 -94 39 -137 76 -132 116 4 36 26
65 60 80 26 12 156 11 204 0 18 -5 23 0 26 24 3 15 1 34 -3 41 -12 19 -203 20
-255 2z"/>
<path d="M1642 8804 l1 -316 116 5 c64 2 125 7 136 10 80 21 142 74 176 150
20 45 24 67 23 162 -1 124 -17 175 -74 232 -52 52 -116 71 -257 72 l-121 2 0
-317z m272 222 c57 -29 87 -91 91 -189 9 -184 -58 -271 -212 -276 l-63 -2 0
246 0 246 71 -2 c49 -1 84 -9 113 -23z"/>
<path d="M3815 9108 c-2 -7 -6 -80 -10 -163 -6 -162 -14 -319 -20 -402 l-3
-53 39 0 c21 0 39 3 40 8 6 56 8 109 12 290 3 118 7 215 9 217 1 2 28 -66 58
-151 l55 -154 31 0 31 0 59 160 c32 88 59 158 60 157 3 -2 15 -304 18 -447 l2
-75 43 -3 42 -3 -5 113 c-3 62 -8 167 -12 233 -3 66 -7 147 -9 180 -2 33 -4
70 -4 83 -1 20 -6 22 -54 22 l-52 0 -50 -132 c-27 -73 -53 -144 -58 -158 -8
-24 -9 -22 -26 25 -10 28 -35 98 -56 158 l-38 107 -49 0 c-30 0 -50 -5 -53
-12z"/>
<path d="M5980 9085 l0 -35 95 0 95 0 0 -280 0 -280 43 0 43 0 -1 263 c0 144
1 270 3 279 4 15 19 18 95 20 98 3 94 1 88 58 -1 6 -85 10 -231 10 l-230 0 0
-35z"/>
<path d="M7102 9085 l0 -35 74 0 74 0 0 -245 0 -245 -74 0 -74 0 0 -35 0 -35
187 0 c103 0 190 2 193 5 2 3 3 18 0 35 l-4 30 -72 0 -71 0 0 243 0 242 72 3
c75 3 85 11 75 55 -4 15 -22 17 -192 17 l-188 0 0 -35z"/>
<path d="M2853 7911 c-5 -9 -49 -92 -98 -186 -48 -93 -100 -192 -115 -220 -15
-27 -60 -113 -100 -190 -40 -77 -143 -273 -228 -435 -85 -162 -184 -351 -220
-420 -35 -69 -86 -165 -112 -215 -75 -141 -141 -268 -220 -420 -62 -118 -144
-273 -217 -412 -10 -18 -21 -33 -24 -33 -4 0 -37 55 -75 123 -37 67 -87 155
-111 195 -24 41 -43 82 -43 92 0 16 -36 39 -44 28 -2 -1 -20 -34 -41 -73 -40
-73 -174 -317 -217 -395 -14 -25 -74 -133 -133 -240 -126 -229 -117 -212 -325
-590 -207 -375 -211 -383 -254 -458 -20 -35 -36 -65 -36 -67 0 -2 -23 -42 -50
-90 -28 -48 -50 -88 -50 -90 0 -1 -29 -55 -65 -119 -50 -89 -64 -122 -59 -141
l6 -25 1249 0 c1071 0 1249 2 1249 14 0 8 5 16 10 18 6 2 -19 55 -55 118 -36
62 -65 115 -65 116 0 1 -22 41 -50 88 l-49 86 1056 -2 1057 -3 141 -225 c78
-124 349 -555 603 -958 409 -648 461 -735 451 -754 -11 -21 0 -37 26 -38 6 0
41 51 79 113 38 61 97 157 131 212 104 167 519 844 536 873 21 36 286 469 311
507 10 17 45 73 77 125 l58 95 1066 3 1065 2 -114 -201 c-117 -206 -119 -211
-82 -239 5 -4 2417 -5 2463 -1 6 1 16 10 23 22 11 18 10 26 -11 62 -13 23 -38
67 -54 97 -55 100 -463 842 -568 1030 -56 102 -189 343 -295 535 -106 193
-210 381 -231 418 -22 38 -39 72 -39 75 0 4 -9 18 -19 31 -15 20 -21 22 -40
12 -12 -7 -19 -16 -16 -22 4 -5 -17 -51 -46 -102 -28 -50 -63 -112 -76 -137
-48 -87 -105 -182 -107 -178 -4 3 -83 155 -176 333 -34 66 -83 158 -107 205
-85 159 -150 285 -228 435 -43 83 -86 164 -95 180 -10 17 -50 93 -90 170 -40
77 -98 187 -128 245 -30 58 -82 157 -115 220 -78 151 -162 310 -202 385 -18
33 -69 131 -114 218 -45 86 -88 157 -94 157 -28 -1 -39 -17 -27 -39 11 -22 -3
-52 -253 -511 -16 -30 -48 -89 -70 -130 -22 -41 -102 -190 -177 -330 -75 -140
-159 -295 -185 -345 -26 -49 -60 -112 -75 -140 -54 -100 -158 -292 -208 -385
-28 -52 -61 -114 -73 -137 l-23 -43 -165 -1 c-429 -1 -1066 2 -1069 6 -2 2 4
16 15 32 10 15 32 53 48 83 15 30 72 134 125 230 53 96 160 290 238 430 77
140 196 356 265 480 117 212 123 226 109 248 l-14 22 -1244 0 c-684 0 -1243
-3 -1242 -7 0 -5 -2 -16 -6 -25 -7 -15 48 -118 321 -598 34 -59 234 -413 255
-450 11 -19 71 -126 134 -236 63 -111 114 -205 114 -208 0 -3 -272 -6 -604 -6
l-605 0 -82 153 c-45 83 -98 181 -117 217 -19 36 -46 88 -62 115 -15 28 -49
91 -75 140 -26 50 -60 113 -75 140 -60 111 -107 197 -313 580 -118 220 -251
469 -297 553 -71 132 -81 157 -72 176 9 20 7 25 -12 34 -18 8 -25 6 -33 -7z
m107 -293 c51 -95 108 -200 125 -233 18 -33 96 -177 172 -320 77 -143 158
-294 181 -335 22 -41 86 -160 142 -265 56 -104 120 -224 143 -265 22 -41 52
-97 67 -125 15 -27 49 -90 75 -140 26 -49 52 -94 56 -99 5 -6 9 -14 9 -18 0
-4 -138 -8 -308 -8 -299 0 -308 -1 -320 -21 -11 -18 -9 -27 19 -72 44 -71 637
-1014 763 -1212 55 -87 106 -167 111 -177 6 -10 49 -80 98 -156 48 -76 87
-141 87 -144 0 -2 -472 -5 -1049 -5 l-1050 0 -107 191 c-59 105 -121 216 -139
246 -27 46 -99 171 -182 320 -11 19 -84 149 -163 288 -101 179 -139 256 -132
265 5 6 65 118 132 247 67 129 146 280 175 335 45 85 164 313 430 820 29 55
81 154 115 220 35 66 84 161 110 210 26 50 76 144 110 210 34 66 75 143 90
170 15 28 51 96 80 152 29 56 56 100 60 98 4 -3 49 -82 100 -177z m5476 109
c11 -24 107 -207 244 -467 48 -91 94 -178 102 -195 15 -30 85 -163 163 -310
23 -44 79 -152 125 -240 45 -88 95 -182 110 -210 15 -27 83 -156 150 -285 67
-129 139 -266 160 -305 20 -38 74 -142 120 -230 45 -88 91 -174 101 -190 l18
-30 -235 -415 c-129 -228 -294 -520 -366 -647 l-132 -233 -1062 0 -1062 0 120
198 c67 108 236 384 376 612 664 1081 605 981 591 1006 -12 23 -16 24 -133 23
-67 0 -196 0 -288 0 l-167 1 29 50 c17 28 30 53 30 55 0 2 17 34 39 72 21 37
62 113 91 168 29 55 78 147 110 205 32 58 79 146 105 195 27 50 77 144 113
210 36 66 80 149 100 185 19 36 49 92 67 125 18 33 56 105 86 160 29 55 70
132 91 170 21 39 70 132 110 207 40 76 75 138 78 138 3 0 10 -10 16 -23z
m-1613 -455 c-4 -8 -38 -71 -76 -141 -38 -69 -189 -342 -335 -606 -145 -264
-275 -498 -287 -520 -12 -22 -41 -75 -64 -117 -41 -75 -44 -78 -79 -79 -92 -1
-716 2 -718 4 -14 20 -824 1459 -824 1466 0 5 510 9 1194 9 1061 0 1194 -2
1189 -16z m-2762 -1702 c55 -102 128 -237 161 -300 34 -63 71 -133 83 -155 21
-37 187 -345 278 -515 52 -98 241 -450 278 -518 16 -29 29 -55 29 -56 0 -2
-97 -4 -215 -4 -144 0 -219 4 -228 12 -8 6 -99 146 -202 311 -348 556 -748
1189 -800 1270 -29 44 -59 94 -68 111 l-16 31 300 -1 300 -1 100 -185z m1365
-147 c104 -184 188 -341 186 -348 -4 -20 34 -39 45 -23 4 7 94 168 199 358
l191 345 616 1 c340 0 617 -2 617 -5 0 -4 -52 -103 -116 -221 -63 -118 -141
-262 -171 -320 -31 -58 -68 -127 -83 -155 -15 -27 -43 -79 -62 -115 -19 -36
-66 -121 -103 -190 -37 -69 -86 -159 -108 -200 -22 -41 -54 -102 -72 -135 -18
-33 -52 -96 -75 -140 -23 -44 -53 -98 -65 -120 -62 -110 -105 -200 -95 -203 5
-2 10 -10 10 -18 0 -12 37 -14 220 -14 l220 0 -66 -107 c-36 -60 -83 -135
-104 -168 -21 -33 -167 -271 -325 -530 -587 -959 -622 -1015 -633 -1002 -5 6
-67 104 -137 217 -71 113 -147 234 -170 270 -23 36 -142 225 -265 420 -122
195 -237 378 -255 405 -18 28 -94 149 -170 270 -76 121 -146 232 -157 248
l-19 27 228 0 c296 0 283 -16 162 208 -17 31 -49 91 -71 132 -22 41 -55 102
-73 135 -52 96 -462 858 -535 995 -37 69 -90 168 -118 221 l-52 96 609 0 608
0 189 -334z m554 326 c0 -4 -59 -115 -131 -246 -73 -131 -148 -267 -167 -301
l-35 -64 -42 74 c-112 195 -305 538 -305 541 0 2 153 4 340 4 187 0 340 -4
340 -8z m1920 3 c0 -5 -50 -89 -91 -152 -5 -8 -231 -377 -503 -820 l-493 -805
-212 -3 c-116 -1 -211 0 -211 4 0 3 15 34 34 67 18 34 55 103 81 152 26 50 56
104 65 120 18 31 57 104 150 280 29 55 56 105 60 110 4 6 27 48 52 95 25 47
130 243 233 435 103 193 206 384 228 425 22 41 44 80 48 86 9 11 559 17 559 6z
m-6630 -42 c0 -4 49 -94 110 -199 72 -127 107 -197 103 -209 -4 -9 -46 -91
-93 -182 -48 -91 -122 -232 -165 -315 -43 -82 -92 -177 -110 -210 -18 -33 -61
-114 -95 -180 -34 -66 -96 -185 -138 -264 -48 -91 -71 -146 -64 -149 7 -2 12
-10 12 -18 0 -12 105 -14 713 -14 l712 -1 107 -192 107 -192 -600 -3 c-329 -1
-868 -1 -1197 0 l-598 3 154 280 c85 154 164 298 176 320 38 69 196 354 271
490 40 72 86 155 102 185 17 30 117 213 223 405 107 193 207 376 224 407 26
49 46 66 46 38z m8812 -142 c144 -261 263 -479 296 -538 19 -36 43 -78 52 -95
10 -16 115 -205 233 -420 281 -510 261 -475 325 -590 76 -137 84 -151 122
-220 18 -33 46 -84 62 -113 17 -29 28 -55 25 -58 -6 -6 -2377 -7 -2383 -1 -4
4 157 294 186 337 6 8 13 23 16 33 6 16 49 17 720 17 609 0 714 2 714 14 0 8
5 16 11 18 10 3 -11 47 -111 233 -20 39 -68 129 -105 200 -37 72 -89 171 -115
220 -26 50 -100 191 -165 315 -65 124 -131 249 -146 278 -16 29 -29 57 -29 62
0 7 120 223 150 270 5 8 24 43 42 78 18 34 35 62 38 62 3 0 31 -46 62 -102z
m-8367 -648 c98 -173 189 -335 203 -360 14 -25 58 -103 98 -173 41 -71 74
-130 74 -132 0 -2 20 -37 45 -79 24 -41 53 -93 64 -114 l20 -39 -670 0 -669 0
6 21 c3 12 14 35 24 51 10 17 46 84 80 150 35 66 82 156 105 200 23 44 75 143
115 220 40 77 92 176 115 220 23 44 73 139 110 210 75 145 85 159 95 148 4 -4
87 -150 185 -323z m8098 178 c52 -98 75 -142 232 -443 37 -71 85 -161 105
-200 21 -38 68 -128 105 -200 37 -71 85 -162 106 -202 22 -40 39 -75 39 -78 0
-3 -301 -5 -670 -5 -368 0 -670 2 -670 4 0 3 24 46 53 98 56 96 305 536 340
598 112 201 300 530 302 530 2 0 28 -46 58 -102z"/>
</g>
</svg>
